<?xml version="1.0" standalone="no"?>
<!DOCTYPE svg PUBLIC "-//W3C//DTD SVG 20010904//EN"
 "http://www.w3.org/TR/2001/REC-SVG-20010904/DTD/svg10.dtd">
<svg version="1.0" xmlns="http://www.w3.org/2000/svg"
 width="446.000000pt" height="700.000000pt" viewBox="0 0 446.000000 700.000000"
 preserveAspectRatio="xMidYMid meet">

<g transform="translate(0.000000,700.000000) scale(0.100000,-0.100000)"
fill="#000000" stroke="none">
<path d="M427 6970 c-38 -30 -95 -153 -111 -240 -50 -265 -50 -1122 0 -1496
10 -83 13 -155 8 -280 -7 -168 -7 -170 26 -299 47 -191 104 -357 154 -451 37
-69 41 -84 28 -89 -8 -3 -71 -8 -139 -12 -87 -4 -129 -10 -139 -20 -19 -19
-18 -27 7 -49 18 -16 34 -19 108 -16 79 2 183 16 216 28 15 6 99 -97 87 -107
-4 -3 -56 -21 -115 -39 -105 -33 -157 -64 -157 -96 0 -25 97 -16 190 17 166
60 145 59 197 7 l45 -45 -93 -65 c-52 -35 -121 -82 -154 -105 -67 -44 -97 -85
-78 -104 29 -29 132 21 295 143 49 37 93 68 96 68 4 0 48 -29 97 -65 102 -74
206 -127 283 -145 28 -7 52 -16 52 -22 0 -11 -39 -50 -123 -121 -116 -99 -255
-322 -323 -522 -23 -67 -28 -96 -27 -180 1 -223 66 -373 196 -455 34 -22 68
-44 75 -50 9 -8 12 -58 12 -183 0 -95 5 -201 10 -237 11 -75 9 -77 -63 -118
-83 -47 -153 -116 -186 -185 -17 -34 -46 -117 -66 -185 -19 -67 -41 -135 -50
-152 -39 -76 -141 -109 -230 -76 -52 20 -134 105 -170 176 -13 26 -42 99 -64
163 -48 140 -72 189 -107 216 -59 47 -147 32 -181 -31 -15 -27 -18 -56 -17
-168 0 -161 18 -254 69 -358 36 -73 153 -231 227 -309 129 -133 371 -162 577
-68 138 64 211 152 255 309 14 54 38 120 52 147 25 50 112 149 130 149 5 0 27
-22 47 -50 20 -27 80 -84 132 -125 52 -42 95 -79 95 -83 0 -4 7 -56 15 -117 8
-60 15 -159 15 -218 l0 -108 -73 -72 c-85 -83 -101 -119 -95 -212 5 -76 36
-129 104 -178 75 -55 135 -72 249 -72 88 0 107 3 158 27 193 91 290 306 315
703 l7 110 59 3 c38 2 62 -1 66 -9 5 -6 8 -62 9 -123 2 -140 27 -340 52 -414
51 -149 184 -263 348 -298 89 -19 127 -18 204 6 84 26 167 98 194 168 21 55
23 155 3 191 -7 14 -41 55 -76 93 -36 37 -69 79 -74 93 -15 40 -11 216 9 353
l17 122 60 52 c155 137 195 181 235 263 50 102 86 242 97 372 9 101 10 103 49
146 83 90 93 200 28 305 -37 61 -46 120 -26 190 6 18 15 87 21 153 27 270 -32
542 -186 870 -35 75 -64 140 -64 143 0 3 9 6 20 6 25 0 245 113 341 175 39 25
76 42 82 39 7 -4 32 -24 57 -44 25 -21 95 -71 155 -112 155 -104 246 -126 219
-52 -6 18 -40 46 -106 88 -112 70 -258 175 -258 184 0 4 17 24 38 44 l38 37
145 -54 c148 -56 239 -71 239 -41 0 44 -69 83 -245 137 -38 12 -72 23 -74 24
-3 4 60 95 66 95 2 0 42 -6 90 -14 224 -36 258 -38 296 -22 38 16 49 44 25 63
-7 6 -65 13 -128 16 -115 6 -233 25 -228 36 2 3 22 44 45 91 50 101 102 258
139 418 23 97 27 137 25 237 -1 66 -3 158 -3 205 -1 47 6 146 16 220 37 298
40 982 5 1321 -17 171 -73 307 -140 343 -33 18 -42 19 -93 7 -81 -18 -547
-253 -691 -349 -66 -44 -156 -111 -200 -149 -44 -38 -91 -76 -105 -86 -28 -19
-81 -22 -112 -6 -34 18 -238 58 -366 71 -105 10 -144 10 -285 -5 -89 -10 -247
-22 -350 -28 -103 -5 -225 -16 -270 -24 -45 -8 -98 -18 -117 -21 -39 -7 -22
-18 -218 142 -130 106 -229 166 -502 306 -310 158 -387 182 -443 138z m3721
-112 c59 -99 76 -176 92 -423 19 -305 9 -875 -19 -1045 l-7 -45 -24 70 c-36
109 -103 256 -139 308 l-32 47 11 97 c7 60 9 149 5 233 -16 330 -59 483 -138
483 -48 0 -238 -122 -402 -259 -48 -40 -85 -63 -94 -60 -9 3 -65 22 -125 43
l-109 38 69 63 c145 134 216 183 369 258 82 40 206 105 275 144 109 61 189 97
225 99 6 1 25 -23 43 -51z m-3539 23 c27 -11 110 -54 184 -95 74 -42 170 -92
213 -112 44 -20 108 -56 144 -79 64 -41 280 -229 280 -243 0 -5 -25 -13 -55
-19 -30 -7 -82 -24 -115 -39 l-60 -27 -42 37 c-24 20 -77 66 -118 102 -80 69
-246 160 -311 170 -46 8 -69 -15 -93 -89 -43 -131 -66 -492 -43 -677 l8 -65
-47 -70 c-49 -74 -134 -240 -134 -262 0 -7 -4 -13 -8 -13 -5 0 -17 143 -27
318 -21 381 -17 765 10 902 19 99 57 201 92 248 28 38 51 40 122 13z m199
-425 c68 -35 177 -114 251 -183 l64 -59 -94 -58 c-137 -85 -220 -148 -288
-221 -33 -36 -62 -65 -65 -65 -2 0 -7 46 -11 103 -7 98 6 269 25 347 4 19 11
56 15 82 6 46 25 78 46 78 5 0 31 -11 57 -24z m3092 22 c0 -2 11 -59 25 -128
26 -129 45 -400 31 -454 -7 -27 -8 -27 -104 66 -62 59 -143 123 -220 173
l-123 79 63 63 c96 97 257 202 311 203 9 0 17 -1 17 -2z m-1137 -118 c282 -48
521 -129 732 -248 228 -128 348 -233 457 -397 121 -182 171 -305 233 -570 59
-252 52 -396 -31 -650 -40 -120 -110 -276 -140 -313 l-19 -23 -122 31 c-138
34 -159 36 -167 15 -11 -31 9 -45 117 -81 62 -20 116 -41 122 -45 6 -6 -4 -23
-26 -45 l-36 -35 -98 25 c-85 22 -101 24 -113 12 -22 -22 -2 -45 69 -76 35
-16 65 -33 67 -38 2 -6 -11 -20 -28 -32 -29 -21 -31 -21 -63 -4 -151 81 -181
89 -193 52 -5 -16 -2 -25 11 -33 9 -5 47 -29 82 -51 l65 -41 -43 -30 c-70 -48
-260 -150 -304 -163 -80 -25 -94 -32 -101 -52 -9 -29 1 -58 47 -138 92 -158
187 -411 213 -565 23 -131 21 -324 -5 -458 -27 -142 -23 -187 24 -256 31 -45
37 -62 37 -106 0 -42 -6 -60 -29 -92 -30 -41 -97 -90 -108 -79 -3 3 -1 23 5
45 16 52 15 86 -3 101 -36 30 -62 -6 -80 -114 -3 -21 -17 -49 -30 -62 -23 -23
-25 -23 -71 -9 -67 20 -70 26 -45 84 24 57 20 101 -9 101 -23 0 -38 -19 -60
-77 -26 -70 -44 -77 -85 -29 -85 97 -62 256 53 364 41 38 47 49 53 100 22 171
4 371 -43 487 -27 69 -50 88 -75 62 -15 -14 -16 -23 -6 -64 6 -27 22 -75 34
-108 20 -51 23 -79 23 -180 0 -66 -3 -146 -8 -177 -7 -52 -13 -63 -55 -103
-27 -25 -61 -69 -77 -98 -26 -46 -29 -62 -29 -137 1 -109 31 -183 96 -229 48
-35 84 -47 190 -63 64 -9 88 -8 149 6 40 9 76 16 79 16 11 0 -8 -146 -30 -235
-41 -164 -132 -297 -274 -401 -35 -26 -67 -54 -71 -63 -20 -47 -35 -190 -41
-378 l-6 -212 35 -33 c19 -18 47 -41 62 -51 35 -24 66 -87 66 -134 0 -37 -31
-103 -49 -103 -5 0 -14 19 -20 43 -15 61 -47 99 -80 95 -36 -4 -38 -29 -7 -98
44 -97 34 -127 -44 -132 l-45 -3 -21 85 c-23 86 -46 120 -85 120 -28 0 -33
-39 -10 -90 20 -43 28 -100 15 -100 -3 0 -33 14 -65 31 -163 87 -228 261 -255
676 -9 134 -12 138 -140 138 -131 0 -131 -1 -144 -180 -5 -77 -12 -160 -16
-185 -10 -80 -46 -214 -72 -270 -43 -92 -136 -176 -214 -194 -34 -8 -34 -2 -7
65 34 89 8 140 -46 89 -21 -20 -30 -46 -51 -148 -7 -35 -43 -47 -87 -28 -45
19 -47 37 -12 131 28 74 27 95 -5 95 -39 0 -59 -20 -81 -80 -21 -57 -23 -60
-40 -45 -28 26 -42 71 -34 112 5 29 24 55 80 110 64 63 75 79 85 126 22 94 -3
394 -38 481 -12 28 -41 58 -104 108 -163 128 -257 261 -298 421 -30 120 -51
320 -48 457 3 118 4 125 23 122 186 -24 301 -8 439 63 75 39 95 45 149 45 84
0 149 37 202 114 21 31 48 58 59 61 12 2 93 9 181 14 158 11 297 37 360 67 50
23 59 56 52 192 -8 156 -38 373 -87 633 -71 376 -68 326 -28 385 19 28 45 83
57 122 l24 72 46 0 c58 0 122 36 212 119 76 69 95 104 80 144 -6 15 -18 27
-26 27 -9 0 -56 -41 -105 -90 -96 -97 -134 -120 -202 -120 -152 0 -288 181
-288 381 0 34 5 42 39 63 44 28 81 94 81 144 0 63 -60 92 -192 92 -94 0 -153
-21 -173 -61 -8 -15 -15 -35 -15 -44 0 -25 82 -106 128 -126 40 -17 42 -20 42
-62 0 -92 -47 -222 -107 -295 -62 -76 -178 -112 -260 -81 -15 6 -71 53 -124
105 -53 52 -103 94 -112 94 -9 0 -21 -9 -27 -20 -20 -36 6 -84 78 -151 98 -88
139 -110 225 -118 64 -5 72 -8 75 -28 4 -29 -4 -30 -205 -37 -89 -3 -173 -11
-187 -17 -52 -24 -70 -125 -56 -319 10 -137 38 -337 60 -425 17 -73 14 -81
-44 -113 -91 -52 -136 -125 -136 -221 0 -54 -15 -81 -43 -81 -50 0 -60 52 -32
161 18 67 14 79 -21 79 -40 0 -67 -72 -62 -166 5 -110 48 -156 133 -140 60 12
81 41 89 123 14 145 120 230 255 206 54 -10 60 -23 22 -45 -41 -23 -55 -52
-35 -72 22 -22 25 -21 85 24 47 35 55 38 73 26 18 -12 86 -121 86 -139 0 -4
-29 -21 -65 -37 -50 -22 -66 -35 -71 -56 -13 -50 28 -53 98 -8 21 13 42 24 48
24 14 0 13 -138 -1 -181 -29 -86 -119 -149 -214 -149 -41 0 -63 -8 -120 -41
-177 -103 -359 -115 -532 -34 -181 84 -259 289 -207 543 46 224 168 417 364
574 92 73 110 100 110 163 0 41 -10 48 -95 69 -84 21 -204 79 -292 142 -76 55
-75 57 38 115 103 52 136 97 85 120 -27 13 -48 4 -175 -78 l-84 -54 -33 32
c-19 18 -34 36 -34 39 0 3 25 14 55 25 73 24 157 73 152 88 -2 7 -21 16 -43
20 -32 7 -54 4 -114 -18 -121 -43 -122 -43 -160 5 -18 23 -29 45 -24 49 12 11
224 71 250 71 11 0 29 9 39 20 15 16 15 22 5 35 -22 27 -108 19 -230 -22 -82
-27 -116 -34 -128 -27 -26 17 -107 179 -145 292 -141 418 -125 702 64 1072
156 307 278 434 605 630 l187 113 163 33 c193 39 341 58 594 79 102 8 201 17
220 19 77 9 331 -4 443 -24z m-373 -1798 l22 -18 -37 -32 c-41 -37 -55 -36
-117 4 -38 24 -49 48 -25 57 6 3 40 6 73 6 45 1 68 -4 84 -17z m-24 -514 c-8
-5 -8 -8 1 -8 6 0 35 -21 65 -46 29 -25 68 -53 86 -62 33 -16 36 -22 26 -59
-5 -20 -7 -20 -25 -5 -14 12 -16 19 -7 29 7 9 7 13 0 13 -18 0 -24 -20 -12
-35 15 -18 -1 -20 -18 -3 -8 8 -9 15 -1 25 12 14 -7 16 -116 15 l-50 -1 60 10
c33 5 69 7 81 4 39 -9 34 8 -7 26 -28 13 -39 24 -37 36 2 12 -4 19 -19 21 -13
2 -23 7 -23 12 0 4 -14 10 -30 12 -27 4 -30 2 -24 -16 5 -17 4 -18 -6 -9 -16
15 -4 47 14 40 8 -3 20 2 28 11 11 15 11 16 -4 4 -13 -10 -17 -10 -22 0 -5 10
-7 10 -12 1 -8 -19 -27 -16 -20 3 3 8 2 12 -4 9 -5 -3 -7 -19 -4 -34 5 -24 1
-32 -20 -46 -14 -10 -34 -14 -43 -11 -17 6 -17 5 -1 -7 16 -13 14 -14 -14 -15
l-32 -1 41 40 c23 22 56 62 74 89 l32 49 27 -42 c18 -28 23 -44 16 -49z m-11
-48 c3 -5 2 -10 -4 -10 -5 0 -13 5 -16 10 -3 6 -2 10 4 10 5 0 13 -4 16 -10z
m-59 -18 c-7 -12 -46 -23 -46 -13 0 7 43 29 49 25 1 -2 0 -7 -3 -12z m104 -35
c-4 -5 -18 -7 -31 -4 -23 4 -23 4 2 6 23 1 26 5 23 29 -4 27 -4 27 5 2 4 -14
5 -29 1 -33z m-66 22 c-3 -5 -13 -9 -22 -8 -11 0 -12 2 -4 6 6 2 10 9 7 14 -4
5 1 6 9 3 9 -3 13 -10 10 -15z m-187 -37 c-21 -23 -21 -32 -2 -32 8 0 15 -4
15 -10 0 -5 24 -11 53 -11 l52 -2 -60 -7 c-66 -9 -70 -8 -85 20 -8 15 -5 23
12 40 27 25 37 26 15 2z m296 -48 c18 -9 42 -28 54 -42 l22 -26 -5 24 c-5 22
-4 23 6 7 6 -9 8 -27 5 -38 -7 -20 -8 -19 -25 9 -29 47 -58 62 -125 63 -45 1
-54 3 -35 9 40 13 69 11 103 -6z m-447 -474 c58 0 74 4 89 20 30 34 52 26 59
-22 3 -24 9 -59 12 -78 7 -43 -26 -97 -71 -119 -41 -20 -142 -19 -182 2 -56
30 -65 54 -57 150 l7 86 36 -20 c26 -14 56 -19 107 -19z m-797 -1898 c11 -37
33 -94 49 -125 l30 -58 -53 -50 c-63 -59 -103 -133 -140 -254 -36 -119 -64
-172 -121 -228 -87 -86 -223 -133 -354 -124 -136 9 -215 59 -331 209 -136 177
-183 295 -184 463 0 102 15 165 40 165 22 0 74 -93 134 -237 68 -164 94 -206
157 -262 120 -105 327 -105 408 1 25 34 58 128 96 273 24 90 51 137 121 206
43 44 104 89 121 89 3 0 15 -31 27 -68z"/>
<path d="M1525 5935 c-52 -18 -88 -61 -138 -164 -41 -88 -51 -148 -27 -176 29
-35 54 -12 76 71 38 146 116 218 208 193 39 -11 79 -53 137 -144 43 -68 86
-106 99 -86 10 17 -5 103 -25 142 -24 46 -104 128 -145 149 -49 24 -136 31
-185 15z"/>
<path d="M2989 5936 c-67 -24 -158 -107 -194 -175 -21 -42 -31 -126 -16 -135
25 -16 52 7 80 68 63 139 160 198 250 151 39 -20 85 -96 111 -182 22 -74 39
-91 75 -77 37 15 -6 172 -77 275 -55 82 -136 108 -229 75z"/>
<path d="M3040 5212 c-49 -24 -72 -89 -73 -207 -2 -164 58 -285 140 -285 75 0
122 48 142 142 13 58 0 184 -24 242 -20 48 -64 97 -102 112 -41 18 -41 18 -83
-4z m80 -137 c0 -11 7 -31 16 -43 14 -20 14 -22 0 -22 -9 0 -25 -11 -37 -24
l-21 -24 -23 24 c-13 13 -32 24 -41 24 -16 0 -16 1 -1 18 10 10 17 29 17 43 0
22 4 24 45 24 39 0 45 -3 45 -20z"/>
<path d="M1530 5178 c-38 -19 -51 -34 -79 -91 -29 -58 -35 -82 -39 -153 -6
-103 10 -164 53 -210 27 -28 40 -34 73 -34 64 0 89 17 119 79 23 49 27 72 31
178 4 114 3 125 -21 177 -18 38 -34 59 -52 66 -35 13 -34 13 -85 -12z m34
-118 c24 9 26 8 26 -21 0 -17 6 -32 15 -35 23 -9 18 -20 -15 -34 -16 -7 -32
-21 -36 -33 -6 -20 -7 -19 -21 6 -9 18 -22 27 -38 27 -29 0 -30 7 -10 34 8 11
15 30 15 43 0 20 3 22 19 13 13 -7 28 -7 45 0z"/>
<path d="M2304 4088 c-4 -6 -3 -8 4 -4 6 3 13 2 17 -4 4 -6 11 -8 16 -4 5 3 7
10 4 15 -8 13 -32 11 -41 -3z"/>
<path d="M2251 4017 c-24 -29 -24 -30 -2 -18 12 7 25 19 28 27 10 26 -1 22
-26 -9z"/>
<path d="M2420 3986 c0 -2 8 -10 18 -17 15 -13 16 -12 3 4 -13 16 -21 21 -21
13z"/>
<path d="M2490 3919 c0 -5 5 -7 10 -4 6 3 10 8 10 11 0 2 -4 4 -10 4 -5 0 -10
-5 -10 -11z"/>
<path d="M2524 3900 c0 -13 4 -16 10 -10 7 7 7 13 0 20 -6 6 -10 3 -10 -10z"/>
</g>
</svg>
